<?xml version="1.0" encoding="utf-8"?>
<!-- Generator: Adobe Illustrator 27.5.0, SVG Export Plug-In . SVG Version: 6.00 Build 0)  -->
<svg version="1.1" xmlns="http://www.w3.org/2000/svg" xmlns:xlink="http://www.w3.org/1999/xlink" x="0px" y="0px"
	 viewBox="0 0 500 500" style="enable-background:new 0 0 500 500;" xml:space="preserve">
<g id="background">
	<rect y="406.576" style="fill:#F9EAD1;" width="500" height="93.424"/>
</g>
<g id="objects">
	<g>
		<g>
			<g>
				<polygon style="fill:#AA3347;" points="362.922,440.095 360.922,295.097 373.294,295.097 371.294,440.095 				"/>
				<polygon style="fill:#AA3347;" points="421.047,440.095 419.047,295.097 431.419,295.097 429.419,440.095 				"/>
			</g>
			<g>
				<path d="M150.383,304.686h45.648c2.398,0,4.341-1.944,4.341-4.341l0,0h-49.989V304.686z"/>
				<path style="fill:#474747;" d="M200.372,300.345h-54.916l-0.72-10.496h45.141C195.673,289.849,200.372,294.548,200.372,300.345
					L200.372,300.345z"/>
			</g>
			<path style="fill:#2A2E35;" d="M202.585,352.812H76.232c-7.396,0-13.813-5.996-14.331-13.392l-0.939-13.392h139.745
				c7.396,0,13.813,5.996,14.331,13.392v0C215.557,346.816,209.981,352.812,202.585,352.812z"/>
			<path style="fill:#515151;" d="M141.509,224.846H66.353c-7.396,0-13.812-5.996-14.331-13.392l-1.073-21.555
				c-0.399-8.017,5.993-14.736,14.02-14.736h73.394c7.379,0,13.499,5.711,14.005,13.073c0.715,10.4,1.596,23.218,1.596,23.218v0
				C154.481,218.85,148.906,224.846,141.509,224.846z"/>
			<path style="fill:#474747;" d="M161.695,326.027H60.962l-6.058-87.789c-0.518-7.396,5.057-13.392,12.454-13.392h73.949
				c7.396,0,13.812,5.996,14.331,13.392L161.695,326.027z"/>
			<path style="opacity:0.3;fill:#1D262D;" d="M126.016,352.812H76.232c-7.396,0-13.813-5.996-14.331-13.392l-0.939-13.392h63.176
				c7.396,0,13.813,5.996,14.331,13.392v0C138.988,346.816,133.412,352.812,126.016,352.812z"/>
			<g>
				<rect x="133.153" y="372.425" style="fill:#2A2E35;" width="6.182" height="59.179"/>
				<polygon style="fill:#2A2E35;" points="133.153,403.036 133.153,396.858 98.371,425.425 98.371,431.603 				"/>
				<polygon style="fill:#2A2E35;" points="139.335,403.036 139.335,396.858 174.118,425.425 174.118,431.603 				"/>
				<path style="fill:#16181E;" d="M175.531,358.635H96.958c-2.681,0-4.854-2.173-4.854-4.854v-0.968h88.282v0.968
					C180.385,356.461,178.212,358.635,175.531,358.635z"/>
				<path style="fill:#2A2E35;" d="M169.468,358.635h-66.447l0,0c0,7.616,6.174,13.79,13.79,13.79h38.867
					C163.294,372.425,169.468,366.251,169.468,358.635L169.468,358.635z"/>
				<path style="fill:#16181E;" d="M145.582,372.425h-18.676v1.254c0,5.157,4.181,9.338,9.338,9.338l0,0
					c5.157,0,9.338-4.181,9.338-9.338V372.425z"/>
				<g>
					<path style="fill:#2A2E35;" d="M182.609,431.603c0-4.69-3.802-8.491-8.491-8.491c-4.69,0-8.491,3.802-8.491,8.491
						c0,4.69,3.802,8.491,8.491,8.491C178.807,440.095,182.609,436.293,182.609,431.603z"/>
					<path style="fill:#16181E;" d="M184.71,431.603c0-5.85-4.742-10.593-10.593-10.593s-10.593,4.742-10.593,10.593H184.71z"/>
				</g>
				<g>
					<path style="fill:#2A2E35;" d="M144.736,431.603c0-4.69-3.802-8.491-8.491-8.491c-4.69,0-8.491,3.802-8.491,8.491
						c0,4.69,3.802,8.491,8.491,8.491C140.934,440.095,144.736,436.293,144.736,431.603z"/>
					<path style="fill:#16181E;" d="M146.837,431.603c0-5.85-4.742-10.593-10.593-10.593c-5.85,0-10.593,4.742-10.593,10.593
						H146.837z"/>
				</g>
				<g>
					<path style="fill:#2A2E35;" d="M106.862,431.603c0-4.69-3.802-8.491-8.491-8.491c-4.69,0-8.491,3.802-8.491,8.491
						c0,4.69,3.802,8.491,8.491,8.491C103.06,440.095,106.862,436.293,106.862,431.603z"/>
					<path style="fill:#16181E;" d="M108.963,431.603c0-5.85-4.742-10.593-10.593-10.593s-10.593,4.742-10.593,10.593H108.963z"/>
				</g>
			</g>
			<g>
				<g>
					<path style="fill:#2A2E35;" d="M107.294,247.943L107.294,247.943c0,3.624-2.938,6.561-6.561,6.561l0,0
						c3.624,0,6.561,2.938,6.561,6.561l0,0c0-3.624,2.938-6.561,6.561-6.561l0,0C110.232,254.504,107.294,251.567,107.294,247.943z"
						/>
					<path style="fill:#2A2E35;" d="M133.001,247.943L133.001,247.943c0,3.624-2.938,6.561-6.561,6.561l0,0
						c3.624,0,6.561,2.938,6.561,6.561l0,0c0-3.624,2.938-6.561,6.561-6.561l0,0C135.939,254.504,133.001,251.567,133.001,247.943z"
						/>
				</g>
				<g>
					<path style="fill:#2A2E35;" d="M109.845,271.592L109.845,271.592c0,3.624-2.938,6.561-6.561,6.561l0,0
						c3.624,0,6.561,2.938,6.561,6.561l0,0c0-3.624,2.938-6.561,6.561-6.561l0,0C112.783,278.154,109.845,275.216,109.845,271.592z"
						/>
					<path style="fill:#2A2E35;" d="M135.552,271.592L135.552,271.592c0,3.624-2.938,6.561-6.562,6.561l0,0
						c3.624,0,6.561,2.938,6.561,6.561h0c0-3.624,2.938-6.561,6.561-6.561l0,0C138.49,278.154,135.552,275.216,135.552,271.592z"/>
				</g>
			</g>
			<path style="fill:#2A2E35;" d="M68.201,224.846h-1.849c-7.396,0-13.812-5.996-14.331-13.392l-1.073-21.555
				c-0.399-8.017,5.993-14.736,14.02-14.736h0.085c7.379,0,13.499,5.711,14.005,13.073c0.715,10.4,1.596,23.218,1.596,23.218v0
				C81.173,218.85,75.597,224.846,68.201,224.846z"/>
			<g>
				<path style="fill:#2A2E35;" d="M101.234,193.443L101.234,193.443c0,3.624-2.938,6.561-6.561,6.561l0,0
					c3.624,0,6.561,2.938,6.561,6.561l0,0c0-3.624,2.938-6.561,6.561-6.561l0,0C104.172,200.004,101.234,197.067,101.234,193.443z"
					/>
				<path style="fill:#2A2E35;" d="M126.941,193.443L126.941,193.443c0,3.624-2.938,6.561-6.562,6.561l0,0
					c3.624,0,6.561,2.938,6.561,6.561h0c0-3.624,2.938-6.561,6.561-6.561l0,0C129.878,200.004,126.941,197.067,126.941,193.443z"/>
			</g>
			<g>
				<g>
					<path style="fill:#D3B697;" d="M208.469,270.558l7.08-40.2c0.951-5.401-2.716-9.779-8.191-9.779
						c-5.475,0-10.685,4.378-11.636,9.779l-6.867,38.991l-3.445,19.557h19.827h49.443l1.722-9.779L208.469,270.558z"/>
					<path style="fill:#D3B697;" d="M274.191,288.906h-19.51l1.722-9.779h9.596C271.474,279.128,275.142,283.506,274.191,288.906
						L274.191,288.906z"/>
				</g>
				<path style="fill:#F4D67D;" d="M192.603,212.529h-5.778c-18.53,0-34.287,13.523-37.099,31.839l-8.74,56.945
					c-1.792,11.674,7.241,22.199,19.052,22.199h18.987l17.002-110.774C194.907,212.604,193.765,212.529,192.603,212.529z"/>
				<path style="fill:#7DC2D3;" d="M196.028,212.739l-17.002,110.774h16.928l15.874-103.425
					C207.596,216.146,202.138,213.474,196.028,212.739z"/>
				<g>
					<path style="fill:#394892;" d="M211.272,264.053l2.492-14.151h-13.82l-2.438,13.845c-0.095,0.541,0.321,1.036,0.87,1.036
						h12.027C210.831,264.783,211.197,264.475,211.272,264.053z"/>
					<path style="fill:#333366;" d="M216.577,251.425l0.306-1.739c0.109-0.619-0.368-1.187-0.997-1.187h-15.81
						c-0.491,0-0.911,0.353-0.996,0.836l-0.306,1.739c-0.109,0.619,0.367,1.187,0.997,1.187h15.81
						C216.072,252.261,216.492,251.908,216.577,251.425z"/>
				</g>
				<path style="fill:#F4D67D;" d="M211.828,220.088l-15.874,103.425h12.522l12.042-78.458
					C222.007,235.355,218.391,226.199,211.828,220.088z"/>
				<path style="fill:#E2BC96;" d="M206.282,231.319L206.282,231.319c-4.929,0-8.314-3.996-7.56-8.926l1.751-11.443h17.851
					l-1.751,11.443C215.819,227.323,211.211,231.319,206.282,231.319z"/>
				<path style="fill:#E4C9A6;" d="M227.533,221.265h-5.322c-15.501,0-28.067-12.566-28.067-28.066v-35.602l50.389-0.99v47.658
					C237.894,210.904,234.172,214.626,227.533,221.265z"/>
				<path style="fill:#A35522;" d="M230.015,144.014h-22.56c-12.98,0-23.502,10.522-23.502,23.503v6.589h42.608
					c6.828,0,12.363-5.535,12.363-12.363v12.363h12.664c1.066,0,1.929-0.864,1.929-1.929v-4.66
					C253.518,154.536,242.995,144.014,230.015,144.014z"/>
				<g>
					<path style="fill:#A35522;" d="M196.665,190.258h-8.094c-2.551,0-4.619-2.068-4.619-4.619v-11.79h12.712V190.258z"/>
				</g>
				<g>
					<g>
						<path style="fill:#903049;" d="M225.817,210.431c1.265-1.114,2.068-2.742,2.068-4.56h-12.161c0,1.818,0.803,3.446,2.068,4.56
							c1.071-0.943,2.473-1.52,4.013-1.52C223.344,208.911,224.746,209.488,225.817,210.431z"/>
						<path style="fill:#7C2A44;" d="M225.817,210.431c-1.071-0.943-2.473-1.52-4.013-1.52c-1.54,0-2.941,0.577-4.013,1.52
							c1.071,0.943,2.473,1.52,4.013,1.52C223.344,211.951,224.746,211.374,225.817,210.431z"/>
					</g>
					<rect x="215.724" y="202.847" style="fill:#F7FFFF;" width="12.161" height="3.024"/>
				</g>
				<path style="fill:#394892;" d="M228.164,139.638h-23.743c-6.554,0-12.169,4.064-14.482,9.799
					c-0.726,1.8-1.136,3.761-1.136,5.818v17.271v8.622h3.011v-9.443v-16.45c0-4.025,1.903-7.606,4.848-9.916
					c2.142-1.68,4.832-2.691,7.758-2.691h23.743c2.222,0,4.309,0.734,6.124,1.748c2.216,0.463,4.442,1.256,6.675,2.319l-0.949-1.351
					c-0.615-0.875-1.326-1.685-2.164-2.35C235.187,140.902,231.821,139.638,228.164,139.638z"/>
				<g>
					<g>
						<path style="fill:#394892;" d="M217.521,209.23h-10.07c-0.323,0-0.631-0.128-0.858-0.356l-15.928-15.928
							c-0.474-0.474-0.474-1.243,0-1.717c0.474-0.474,1.243-0.474,1.717,0l15.573,15.572h9.567c0.671,0,1.214,0.544,1.214,1.214
							C218.735,208.687,218.192,209.23,217.521,209.23z"/>
					</g>
					
						<ellipse transform="matrix(0.7071 -0.7071 0.7071 0.7071 -79.2282 190.4746)" style="fill:#394892;" cx="190.309" cy="190.874" rx="11.044" ry="11.044"/>
					<path style="fill:#F4D67D;" d="M196.797,190.874c0-3.583-2.905-6.488-6.488-6.488c-3.583,0-6.488,2.905-6.488,6.488
						c0,3.583,2.905,6.488,6.488,6.488C193.892,197.362,196.797,194.457,196.797,190.874z"/>
				</g>
				<path style="fill:#2F3E75;" d="M140.58,303.686c0,12.607,10.22,22.827,22.827,22.827h82.324c1.659,0,2.873,1.565,2.46,3.172
					l-23.76,92.4h22.03l26.755-96.582c3.039-10.97-5.212-21.817-16.595-21.817H140.58z"/>
				<path style="fill:#394892;" d="M209.368,303.686H140.58c0,12.607,10.22,22.827,22.827,22.827h36.676
					c1.654,0,2.866,1.555,2.463,3.159l-23.232,92.414h22.03l25.356-95.572l0.316-1.191c2.899-10.927-5.339-21.636-16.645-21.636
					H209.368z"/>
				<g>
					<path style="fill:#6D3D34;" d="M267.244,433.619l-0.054-0.74c-0.447-6.084-5.513-10.793-11.614-10.793h-31.272l-2.773,11.533
						h32.126H267.244z"/>
					<path d="M253.656,433.619H221.53l-0.552,2.296l-0.376,1.564c-0.026,0.108-0.03,0.214-0.039,0.321
						c-0.103,1.211,0.84,2.295,2.1,2.295h41.181c1.653,0,3.026-1.277,3.145-2.926l0.256-3.55H253.656z"/>
				</g>
				<path style="opacity:0.2;fill:#222221;" d="M267.19,432.878c-0.447-6.084-5.513-10.793-11.614-10.793h-31.272l-2.774,11.533
					l-0.552,2.296l-0.376,1.564c-0.026,0.108-0.03,0.214-0.039,0.321c-0.103,1.211,0.84,2.295,2.1,2.295h41.181
					c1.653,0,3.026-1.277,3.145-2.926l0.256-3.55L267.19,432.878z"/>
				<g>
					<path style="fill:#6D3D34;" d="M222.255,433.619l-0.054-0.74c-0.447-6.084-5.514-10.793-11.614-10.793h-31.272l-2.774,11.533
						h32.126H222.255z"/>
					<path d="M208.666,433.619H176.54l-0.552,2.296l-0.376,1.564c-0.026,0.108-0.03,0.214-0.039,0.321
						c-0.103,1.211,0.84,2.295,2.1,2.295h41.181c1.653,0,3.026-1.277,3.145-2.926l0.256-3.55H208.666z"/>
				</g>
				<polygon style="fill:#1E2E5B;" points="222.303,422.086 225.602,409.754 251.877,409.754 248.461,422.086 				"/>
				<polygon style="fill:#2F3E75;" points="177.344,422.086 180.643,409.754 206.918,409.754 203.502,422.086 				"/>
				<path style="fill:#2A2E35;" d="M247.534,284.017h-7.814c-2.7,0-4.889,2.189-4.889,4.889l0,0h17.593l0,0
					C252.423,286.206,250.234,284.017,247.534,284.017z"/>
				<g>
					<path style="fill:#7DC2D3;" d="M182.221,230.768c0.943-5.354-2.418-10.023-7.815-10.184c-5.585-0.166-10.971,4.274-11.94,9.774
						L159.359,248h19.827L182.221,230.768z"/>
					<path style="fill:#E4C9A6;" d="M175.213,270.558L179.186,248h-19.827l-3.76,21.349l-1.618,9.187
						c-1.009,5.727,2.881,10.37,8.687,10.37h9.314h49.443l1.722-9.779L175.213,270.558z"/>
					<path style="fill:#E4C9A6;" d="M232.743,279.128h-9.596l-1.722,9.779h19.51C241.886,283.506,238.218,279.128,232.743,279.128z"
						/>
				</g>
				<g>
					<path style="fill:#3F2000;" d="M215.324,188.387c0,1.194-0.968,2.162-2.162,2.162c-1.194,0-2.162-0.968-2.162-2.162
						c0-1.194,0.968-2.162,2.162-2.162C214.356,186.225,215.324,187.193,215.324,188.387z"/>
					<path style="fill:#3F2000;" d="M239.277,188.387c0,1.194-0.968,2.162-2.162,2.162s-2.162-0.968-2.162-2.162
						c0-1.194,0.968-2.162,2.162-2.162S239.277,187.193,239.277,188.387z"/>
					<polygon style="fill:#D3B697;" points="230.618,193.434 230.618,196.315 224.954,196.315 					"/>
				</g>
				<path style="fill:#F4D67D;" d="M141.166,300.031l-4.249,26.482h20.438c12.411,0,22.909-9.177,24.569-21.476l0.455-3.368
					L141.166,300.031z"/>
			</g>
			<g>
				<path d="M84.685,304.686h63.649c2.398,0,4.341-1.944,4.341-4.341l0,0h-67.99V304.686z"/>
				<path style="fill:#2A2E35;" d="M152.675,300.345H79.758l-0.72-10.496h63.142C147.976,289.849,152.675,294.548,152.675,300.345
					L152.675,300.345z"/>
			</g>
			<path style="fill:#2A2E35;" d="M89.639,326.027H60.962l-6.058-87.789c-0.518-7.396,5.057-13.392,12.454-13.392h1.893
				c7.396,0,13.812,5.996,14.331,13.392L89.639,326.027z"/>
			<rect x="204.918" y="288.906" style="fill:#EFBF48;" width="245.501" height="11.125"/>
			<g>
				<polygon style="fill:#DD6C7B;" points="220.631,440.095 218.631,295.097 231.003,295.097 229.003,440.095 				"/>
				<polygon style="fill:#DD6C7B;" points="278.756,440.095 276.756,295.097 289.128,295.097 287.128,440.095 				"/>
			</g>
			<rect x="204.918" y="288.906" style="fill:#F4D67D;" width="99.902" height="11.125"/>
			<line style="fill:#F4D67D;" x1="149.727" y1="244.368" x2="140.987" y2="301.314"/>
			<g id="XMLID_1_">
				<path style="fill:#7DC2D3;" d="M310.377,216.607l-7.911,51.534C291.569,251.474,294.994,229.217,310.377,216.607z"/>
				<polygon style="fill:#2A2E35;" points="341.176,274.598 338.978,288.91 325.004,288.91 317.781,288.91 319.978,274.598 
					327.202,274.598 333.896,274.598 				"/>
				<polygon style="fill:#16181E;" points="380.934,274.598 378.736,288.91 344.714,288.91 339.001,288.91 341.198,274.598 
					346.901,274.598 				"/>
				<path style="fill:#515151;" d="M302.466,268.141l7.911-51.534l0.491-3.207c0.262-1.708,1.731-2.969,3.459-2.969h29.418
					l-9.849,64.167h-6.694h-7.224h-14.427c-2.144,0-3.784-1.911-3.459-4.03L302.466,268.141z"/>
				<path style="fill:#2A2E35;" d="M333.896,274.598l9.849-64.167h48.202c7.678,0,13.551,6.843,12.386,14.432l-6.002,39.105
					c-0.939,6.115-6.199,10.63-12.386,10.63h-5.011h-34.033h-5.702h-0.023H333.896z"/>
			</g>
			<g>
				<rect x="247.764" y="287.406" style="fill:#2A2E35;" width="75.135" height="1.5"/>
			</g>
		</g>
		<g>
			<g>
				<path style="fill:#2A2E35;" d="M339.745,100.245l-13.367-27.41l-13.367,27.41l-1.798-0.877l12.476-25.581
					c1.093-2.241,4.285-2.241,5.378,0l12.476,25.581L339.745,100.245z"/>
			</g>
			<g>
				<circle style="fill:#EFBF48;" cx="326.378" cy="125.613" r="32.905"/>
				<circle style="fill:#FFFFFF;" cx="326.378" cy="125.613" r="25.806"/>
			</g>
			<circle style="fill:#A35522;" cx="326.378" cy="75.126" r="3.571"/>
			<g>
				<path style="fill:#394892;" d="M326.378,127.113c-0.384,0-0.768-0.146-1.061-0.439l-15.165-15.165
					c-0.586-0.585-0.586-1.536,0-2.121c0.586-0.586,1.535-0.586,2.121,0l14.104,14.104l9.764-9.764c0.586-0.586,1.535-0.586,2.121,0
					c0.586,0.586,0.586,1.536,0,2.121l-10.824,10.824C327.146,126.967,326.762,127.113,326.378,127.113z"/>
			</g>
			<circle style="fill:#F4D67D;" cx="326.378" cy="125.613" r="3.571"/>
		</g>
	</g>
	<g>
		<rect x="74.581" y="62.618" style="fill:#394892;" width="170.292" height="45.115"/>
		<rect x="68.58" y="62.618" style="fill:#7DC2D3;" width="159.305" height="45.115"/>
		<rect x="67.608" y="78.644" style="fill:none;" width="161.25" height="13.064"/>
		
			<text transform="matrix(1 0 0 1 78.3126 91.2579)" style="fill:#FFFFFF; font-family:'Montserrat-Bold'; font-size:17px; letter-spacing:1;">CALL CENTER</text>
	</g>
</g>
<g id="designed_by_freepik">
	<g>
		<g>
			<g id="XMLID_225_">
				<g id="XMLID_244_">
					<path id="XMLID_252_" style="fill:#1D262D;" d="M260.104,479.112c-0.432,0.443-0.803,0.931-1.108,1.453l-0.465-0.241
						c-0.067-0.298-0.349-0.503-0.659-0.466c-0.331,0.039-0.568,0.339-0.529,0.67c0.039,0.331,0.339,0.568,0.67,0.529
						c0.065-0.008,0.127-0.026,0.183-0.052l0.452,0.234c-0.251,0.554-0.433,1.139-0.539,1.744l0.747,0.132
						c0.23-1.306,0.85-2.507,1.792-3.472L260.104,479.112z"/>
					<path id="XMLID_251_" style="fill:#1D262D;" d="M265.592,476.81c-0.171,0-0.341,0.006-0.51,0.017l-0.074-0.626
						c0.188-0.149,0.296-0.389,0.266-0.645c-0.046-0.393-0.402-0.674-0.795-0.628c-0.393,0.046-0.674,0.402-0.628,0.795
						c0.03,0.254,0.189,0.461,0.404,0.564l0.074,0.624c-0.714,0.116-1.403,0.332-2.06,0.646l0.327,0.684
						c0.934-0.447,1.942-0.673,2.995-0.673c0.496,0,0.993,0.053,1.475,0.158l0.161-0.741
						C266.692,476.869,266.142,476.81,265.592,476.81z"/>
					<path id="XMLID_250_" style="fill:#1D262D;" d="M272.194,479.357c0.331-0.04,0.566-0.341,0.526-0.672
						c-0.04-0.331-0.341-0.566-0.672-0.526c-0.309,0.038-0.535,0.304-0.53,0.609l-0.416,0.363c-0.418-0.43-0.889-0.813-1.408-1.139
						l-0.404,0.641c1.134,0.715,2.021,1.726,2.563,2.925l0.69-0.313c-0.251-0.554-0.568-1.072-0.942-1.545l0.402-0.351
						C272.065,479.362,272.129,479.365,272.194,479.357z"/>
					<path id="XMLID_249_" style="fill:#1D262D;" d="M265.044,487.018c-0.386,0.023-0.775,0.035-1.157,0.035
						c-0.88,0-1.733-0.061-2.478-0.179c-0.39-0.062-0.846-0.155-1.27-0.292c1.046,1.861,3.069,3.125,5.388,3.125
						c2.855,0,5.262-1.916,5.95-4.504c-0.682,0.449-1.505,0.825-2.459,1.123C267.839,486.693,266.463,486.933,265.044,487.018z"/>
					<path id="XMLID_245_" style="fill:#1D262D;" d="M265.592,478.326c-3.352,0-6.079,2.666-6.079,5.944
						c0,0.425,0.046,0.849,0.137,1.261c0.673,0.483,2.706,0.89,5.347,0.731c2.879-0.173,5.297-0.957,6.672-2.158
						c-0.006-0.195-0.021-0.39-0.045-0.582C271.244,480.56,268.65,478.326,265.592,478.326z M263.432,484.841
						c-1.02,0-1.85-0.83-1.85-1.85c0-1.02,0.83-1.85,1.85-1.85c1.02,0,1.85,0.83,1.85,1.85
						C265.282,484.011,264.452,484.841,263.432,484.841z M268.17,483.932c-0.75,0-1.36-0.61-1.36-1.36s0.61-1.361,1.36-1.361
						c0.75,0,1.361,0.61,1.361,1.361S268.92,483.932,268.17,483.932z"/>
				</g>
				<path id="XMLID_242_" style="fill:#1D262D;" d="M281.595,480.193c-0.295-0.116-0.805-0.309-1.382-0.237
					c-0.551,0.068-0.844,0.34-0.844,1.007v0.866h2.228v1.717h-2.228V489h-1.932v-5.455h-1.34v-1.717h1.34v-0.888
					c0-1.68,0.896-2.783,2.568-2.783c0.643,0,1.157,0.122,1.59,0.308L281.595,480.193z"/>
				<path id="XMLID_240_" style="fill:#1D262D;" d="M286.298,483.525c-0.177-0.03-0.358-0.046-0.526-0.046
					c-0.895,0-1.51,0.548-1.51,1.613V489h-1.932v-7.172h1.873v0.785c0.451-0.674,1.14-0.977,2.021-0.977
					c0.414,0,0.848,0.128,1.094,0.337L286.298,483.525z"/>
				<path id="XMLID_237_" style="fill:#1D262D;" d="M293.965,485.403c0,0.222-0.015,0.489-0.037,0.651h-5.085
					c0.207,1.036,0.933,1.488,1.843,1.488c0.622,0,1.295-0.252,1.813-0.688l1.133,1.243c-0.814,0.748-1.85,1.088-3.057,1.088
					c-2.198,0-3.723-1.495-3.723-3.753c0-2.257,1.48-3.797,3.627-3.797C292.544,481.636,293.958,483.168,293.965,485.403z
					 M288.851,484.737h3.175c-0.177-0.918-0.733-1.436-1.562-1.436C289.554,483.301,289.021,483.849,288.851,484.737z"/>
				<path id="XMLID_234_" style="fill:#1D262D;" d="M301.618,485.403c0,0.222-0.015,0.489-0.037,0.651h-5.085
					c0.207,1.036,0.932,1.488,1.843,1.488c0.622,0,1.295-0.252,1.814-0.688l1.132,1.243c-0.814,0.748-1.85,1.088-3.057,1.088
					c-2.198,0-3.723-1.495-3.723-3.753c0-2.257,1.48-3.797,3.627-3.797C300.197,481.636,301.611,483.168,301.618,485.403z
					 M296.504,484.737h3.175c-0.178-0.918-0.733-1.436-1.562-1.436C297.207,483.301,296.674,483.849,296.504,484.737z"/>
				<path id="XMLID_231_" style="fill:#1D262D;" d="M309.964,485.411c0,2.154-1.495,3.775-3.471,3.775
					c-0.962,0-1.643-0.378-2.109-0.933v3.708h-1.924v-10.133h1.887v0.792c0.466-0.585,1.155-0.984,2.139-0.984
					C308.469,481.636,309.964,483.257,309.964,485.411z M304.287,485.411c0,1.132,0.747,1.976,1.843,1.976
					c1.14,0,1.85-0.881,1.85-1.976c0-1.095-0.711-1.976-1.85-1.976C305.035,483.435,304.287,484.278,304.287,485.411z"/>
				<path id="XMLID_228_" style="fill:#1D262D;" d="M313.067,479.482c0,0.696-0.54,1.229-1.236,1.229
					c-0.696,0-1.229-0.533-1.229-1.229c0-0.696,0.533-1.243,1.229-1.243C312.527,478.239,313.067,478.786,313.067,479.482z
					 M312.809,489h-1.932v-7.172h1.932V489z"/>
				<path id="XMLID_226_" style="fill:#1D262D;" d="M316.032,484.382l2.702-2.554h2.368l-3.479,3.375l3.501,3.797h-2.376
					l-2.716-2.901V489H314.1v-10.658h1.932V484.382z"/>
			</g>
			<g>
				<path style="fill:#1D262D;" d="M184.412,488.935v-1.055c-0.527,0.718-1.391,1.23-2.387,1.23c-1.846,0-3.149-1.406-3.149-3.706
					c0-2.256,1.289-3.721,3.149-3.721c0.952,0,1.816,0.469,2.387,1.245v-3.765h1.099v9.77H184.412z M184.412,487.017v-3.208
					c-0.395-0.615-1.245-1.143-2.124-1.143c-1.421,0-2.27,1.172-2.27,2.739c0,1.567,0.85,2.724,2.27,2.724
					C183.168,488.13,184.017,487.632,184.412,487.017z"/>
				<path style="fill:#1D262D;" d="M186.932,485.391c0-2.051,1.465-3.706,3.486-3.706c2.139,0,3.398,1.67,3.398,3.794v0.279h-5.727
					c0.088,1.333,1.025,2.446,2.549,2.446c0.805,0,1.626-0.322,2.182-0.893l0.527,0.718c-0.703,0.703-1.655,1.084-2.812,1.084
					C188.44,489.111,186.932,487.603,186.932,485.391z M190.403,482.593c-1.509,0-2.256,1.274-2.314,2.358h4.643
					C192.718,483.896,192.015,482.593,190.403,482.593z"/>
				<path style="fill:#1D262D;" d="M194.607,487.998l0.571-0.791c0.469,0.542,1.362,1.011,2.329,1.011
					c1.084,0,1.67-0.513,1.67-1.216c0-1.714-4.38-0.659-4.38-3.281c0-1.098,0.952-2.036,2.636-2.036
					c1.201,0,2.051,0.454,2.622,1.026l-0.513,0.762c-0.424-0.513-1.201-0.894-2.109-0.894c-0.967,0-1.567,0.483-1.567,1.113
					c0,1.552,4.38,0.527,4.38,3.281c0,1.187-0.952,2.139-2.783,2.139C196.306,489.111,195.325,488.76,194.607,487.998z"/>
				<path style="fill:#1D262D;" d="M201.477,480.117c0-0.41,0.337-0.747,0.732-0.747c0.41,0,0.747,0.337,0.747,0.747
					c0,0.41-0.337,0.732-0.747,0.732C201.814,480.85,201.477,480.528,201.477,480.117z M201.667,488.935v-7.075h1.099v7.075H201.667
					z"/>
				<path style="fill:#1D262D;" d="M204.582,490.752l0.556-0.82c0.586,0.703,1.289,0.967,2.3,0.967c1.172,0,2.27-0.571,2.27-2.124
					v-1.011c-0.513,0.718-1.377,1.26-2.373,1.26c-1.845,0-3.149-1.377-3.149-3.662c0-2.27,1.289-3.677,3.149-3.677
					c0.952,0,1.802,0.469,2.373,1.245v-1.069h1.098v6.87c0,2.344-1.641,3.076-3.369,3.076
					C206.237,491.806,205.417,491.572,204.582,490.752z M209.709,486.899v-3.091c-0.381-0.615-1.23-1.143-2.109-1.143
					c-1.421,0-2.27,1.128-2.27,2.695c0,1.553,0.849,2.695,2.27,2.695C208.478,488.056,209.328,487.515,209.709,486.899z"/>
				<path style="fill:#1D262D;" d="M217.413,488.935v-4.629c0-1.245-0.63-1.641-1.582-1.641c-0.865,0-1.685,0.527-2.095,1.099v5.17
					h-1.099v-7.075h1.099v1.025c0.498-0.586,1.465-1.201,2.519-1.201c1.48,0,2.256,0.747,2.256,2.285v4.966H217.413z"/>
				<path style="fill:#1D262D;" d="M219.932,485.391c0-2.051,1.465-3.706,3.486-3.706c2.139,0,3.398,1.67,3.398,3.794v0.279h-5.727
					c0.088,1.333,1.025,2.446,2.549,2.446c0.806,0,1.626-0.322,2.183-0.893l0.527,0.718c-0.703,0.703-1.655,1.084-2.812,1.084
					C221.441,489.111,219.932,487.603,219.932,485.391z M223.404,482.593c-1.509,0-2.256,1.274-2.314,2.358h4.643
					C225.718,483.896,225.015,482.593,223.404,482.593z"/>
				<path style="fill:#1D262D;" d="M233.35,488.935v-1.055c-0.527,0.718-1.392,1.23-2.388,1.23c-1.846,0-3.149-1.406-3.149-3.706
					c0-2.256,1.289-3.721,3.149-3.721c0.952,0,1.817,0.469,2.388,1.245v-3.765h1.098v9.77H233.35z M233.35,487.017v-3.208
					c-0.396-0.615-1.245-1.143-2.124-1.143c-1.421,0-2.27,1.172-2.27,2.739c0,1.567,0.849,2.724,2.27,2.724
					C232.105,488.13,232.954,487.632,233.35,487.017z"/>
				<path style="fill:#1D262D;" d="M239.692,488.935v-9.77h1.098v3.765c0.572-0.776,1.421-1.245,2.388-1.245
					c1.845,0,3.149,1.465,3.149,3.721c0,2.299-1.304,3.706-3.149,3.706c-0.996,0-1.86-0.513-2.388-1.23v1.055H239.692z
					 M242.9,488.13c1.436,0,2.285-1.157,2.285-2.724c0-1.568-0.85-2.739-2.285-2.739c-0.864,0-1.728,0.527-2.109,1.143v3.208
					C241.171,487.632,242.036,488.13,242.9,488.13z"/>
				<path style="fill:#1D262D;" d="M247.528,490.708c0.161,0.073,0.425,0.117,0.601,0.117c0.483,0,0.805-0.161,1.055-0.747
					l0.469-1.069l-2.959-7.148h1.187l2.358,5.801l2.344-5.801h1.201l-3.545,8.51c-0.425,1.025-1.143,1.421-2.08,1.435
					c-0.234,0-0.601-0.044-0.806-0.103L247.528,490.708z"/>
			</g>
		</g>
	</g>
</g>
</svg>
